<?xml version="1.0" encoding="UTF-8" standalone="no"?>
<!-- Created with Inkscape (http://www.inkscape.org/) -->

<svg
   width="185.44756mm"
   height="69.216393mm"
   viewBox="0 0 185.44757 69.216393"
   version="1.1"
   id="svg5"
   inkscape:version="1.1.2 (b8e25be833, 2022-02-05)"
   sodipodi:docname="AML-SHACL-Logo.svg"
   xmlns:inkscape="http://www.inkscape.org/namespaces/inkscape"
   xmlns:sodipodi="http://sodipodi.sourceforge.net/DTD/sodipodi-0.dtd"
   xmlns="http://www.w3.org/2000/svg"
   xmlns:svg="http://www.w3.org/2000/svg">
  <sodipodi:namedview
     id="namedview7"
     pagecolor="#ffffff"
     bordercolor="#666666"
     borderopacity="1.0"
     inkscape:pageshadow="2"
     inkscape:pageopacity="0.0"
     inkscape:pagecheckerboard="0"
     inkscape:document-units="mm"
     showgrid="false"
     fit-margin-top="5"
     fit-margin-left="5"
     fit-margin-right="5"
     fit-margin-bottom="5"
     inkscape:zoom="1"
     inkscape:cx="285.5"
     inkscape:cy="245"
     inkscape:window-width="1920"
     inkscape:window-height="1017"
     inkscape:window-x="-8"
     inkscape:window-y="-8"
     inkscape:window-maximized="1"
     inkscape:current-layer="layer1" />
  <defs
     id="defs2" />
  <g
     inkscape:label="Ebene 1"
     inkscape:groupmode="layer"
     id="layer1"
     transform="translate(-15.361776,-3.1916311)">
    <path
       d="m 121.49406,67.117332 c -2.70989,-0.606046 -4.52305,-1.430348 -6.78946,-3.086655 -6.42309,-4.694032 -8.77509,-13.469784 -5.69146,-21.236408 0.70754,-1.782093 1.33377,-2.837919 2.68944,-4.53433 0.53674,-0.671665 0.98044,-1.382559 0.98596,-1.579737 0.005,-0.197191 -0.23019,-1.187528 -0.5237,-2.200793 -0.6101,-2.105701 -0.63627,-2.652538 -0.17111,-3.56589 0.56032,-1.100154 1.5075,-1.709764 3.64134,-2.343603 1.08894,-0.323448 1.98289,-0.695329 1.98655,-0.826393 0.0227,-0.809955 -0.35247,-1.216213 -1.34731,-1.458875 -1.8546,-0.452408 -2.63746,-1.189917 -4.14899,-3.908683 -1.32548,-2.384122 -1.49193,-2.879652 -1.45155,-4.32128 0.0319,-1.139544 -0.005,-1.261928 -0.45183,-1.480611 -0.42884,-0.210078 -0.61361,-0.159122 -1.55556,0.428984 -1.33347,0.832543 -3.01078,1.048343 -6.08232,0.782537 -2.15447,-0.186452 -3.434104,-0.588282 -4.196058,-1.317673 -0.555037,-0.531339 -0.871717,-0.0652 -1.032827,1.520331 -0.217617,2.141941 -1.999845,5.899237 -2.95819,6.236523 -0.440938,0.155187 -7.060573,-2.271894 -7.199651,-2.639712 -0.06806,-0.17966 -0.108811,-0.765302 -0.09097,-1.301352 0.02596,-0.768249 0.262769,-1.422732 1.119629,-3.090468 1.230778,-2.395476 1.942496,-3.206693 3.360385,-3.830158 1.323489,-0.581954 2.675519,-0.541633 3.888926,0.116299 1.240447,0.672276 1.456884,0.557833 1.499994,-0.793169 0.0591,-1.846416 0.979194,-3.3334021 2.550055,-4.12035 0.705057,-0.3532111 1.162687,-0.3934303 4.187787,-0.3680934 4.13952,0.034677 4.8136,0.2017907 6.03814,1.4968947 0.97315,1.0292367 1.37486,2.2626877 1.1408,3.5027097 -0.13083,0.693096 -0.10087,0.752379 0.548,1.084421 0.68387,0.349938 0.69021,0.349015 1.71481,-0.248809 0.86843,-0.506701 1.21539,-0.594795 2.23066,-0.566355 2.24697,0.06294 3.56815,1.406823 5.68127,5.778915 0.70009,1.448526 0.83644,1.921128 0.81141,2.812809 -0.0321,1.148729 -0.39134,1.995441 -1.18855,2.801926 -0.46247,0.46784 -0.48016,0.551857 -0.27617,1.309283 0.11971,0.44519 0.31385,0.810907 0.43089,0.812831 0.11723,0.0017 0.90229,-0.195597 1.74487,-0.438898 1.72601,-0.498405 2.80072,-0.531413 3.7092,-0.113882 0.98429,0.452364 1.40585,1.118717 1.82579,2.88594 0.51068,2.14921 1.12275,2.825167 3.43515,3.793702 4.37065,1.830619 8.06232,5.650976 9.86799,10.211955 1.79306,4.529232 1.59151,9.810716 -0.54142,14.186174 -2.37131,4.864483 -6.5944,8.231732 -11.97574,9.548724 -1.80637,0.442076 -5.57462,0.473329 -7.41608,0.06151 z m 6.18113,-5.401364 c 2.21639,-0.501189 3.73783,-1.325423 5.47606,-2.96667 2.45486,-2.317899 3.64079,-4.902801 3.73126,-8.132812 0.19293,-6.887598 -5.48351,-12.334447 -12.09228,-11.603209 -5.19441,0.574745 -9.27753,3.933693 -10.65954,8.769034 -1.11309,3.894532 -0.21119,7.519643 2.61798,10.52348 1.81408,1.926019 3.51083,2.885243 6.25891,3.53834 1.03941,0.247029 3.28054,0.185492 4.66761,-0.128163 z M 122.0532,37.192627 c 0.44974,-0.343789 0.45258,-0.365853 0.18389,-1.421965 -0.2313,-0.914105 -0.23182,-1.125858 0.005,-1.431178 0.15279,-0.197134 0.28727,-0.69657 0.29886,-1.109868 0.0598,-2.132921 -3.02911,-2.44127 -3.61368,-0.360744 -0.19179,0.682615 0.20353,1.637465 0.81885,1.977826 0.35257,0.195025 0.56782,0.545003 0.71433,1.161448 0.19997,0.841126 0.6332,1.519615 0.97658,1.529232 0.0876,0.0025 0.36503,-0.152691 0.61628,-0.344749 z m -5.53692,-14.959671 c 0.14392,-0.583589 1.15929,-1.054952 1.88364,-0.874455 0.85427,0.21286 0.75409,-0.217539 -0.61434,-2.639699 -1.18392,-2.095531 -1.68009,-2.598228 -2.58966,-2.623704 -0.36594,-0.01025 -0.37257,0.01818 -0.10044,0.430824 0.16033,0.242967 0.2856,0.645617 0.27862,0.894702 -0.0169,0.60177 -0.87255,1.386636 -1.49285,1.369263 -0.27294,-0.0077 -0.4985,0.06559 -0.50121,0.162721 -0.01,0.35734 1.90633,3.696334 2.39217,4.168083 l 0.50172,0.487168 0.0678,-0.471214 c 0.0374,-0.259189 0.11583,-0.665833 0.17448,-0.903686 z M 94.007131,20.297271 c 0.790119,-1.757598 0.801713,-1.945553 0.124177,-2.016548 -0.591402,-0.06199 -1.199694,-0.70631 -1.184332,-1.254536 0.0053,-0.194336 0.256932,-0.630799 0.558881,-0.969884 l 0.548973,-0.616524 -0.834493,0.08823 c -0.458988,0.04849 -0.973707,0.197295 -1.143813,0.330624 -0.170119,0.133323 -0.764155,1.088798 -1.320076,2.123285 -1.233594,2.295546 -1.409416,3.646004 -0.386924,2.971683 0.962797,-0.634947 2.26561,-8.53e-4 2.248178,1.094204 l -0.0084,0.536339 0.376736,-0.42667 c 0.207211,-0.234669 0.666746,-1.071758 1.021196,-1.860199 z M 106.7087,15.066655 c 0.40523,-0.100461 0.73781,-0.21832 0.73904,-0.262011 0.002,-0.04379 -0.21103,-0.304917 -0.47154,-0.580509 -0.83315,-0.881164 -0.35835,-2.000785 0.7649,-1.803663 0.66376,0.116484 0.71794,-0.160871 0.1745,-0.893055 l -0.38969,-0.525014 -3.3692,-0.09438 c -3.30611,-0.09261 -3.37912,-0.08573 -3.89847,0.369279 -0.291117,0.255005 -0.533567,0.616973 -0.538837,0.804394 -0.007,0.265018 0.0443,0.290158 0.23097,0.113339 0.333327,-0.31515 0.751347,-0.271502 1.161697,0.121306 0.51277,0.490861 0.41301,1.341901 -0.22245,1.898902 l -0.53933,0.472707 0.47161,0.203827 c 0.63512,0.274523 4.96547,0.403162 5.88682,0.174919 z M 79.693302,65.285341 c 0.0022,-0.07776 0.171442,-0.23957 0.376148,-0.359576 0.204706,-0.120016 0.615331,-0.673685 0.912483,-1.23038 0.632121,-1.184237 0.777835,-2.934374 0.32287,-3.87804 l -0.281308,-0.583549 1.087551,0.03046 c 2.978901,0.08344 5.89799,-1.076517 8.203456,-3.259796 2.403747,-2.276348 3.4703,-4.697837 3.546913,-8.052829 0.05053,-2.212019 -0.535351,-4.356899 -1.709527,-6.258557 l -0.797166,-1.291118 0.614676,0.01568 c 0.653342,0.01609 2.363223,-0.806649 2.944302,-1.417141 0.191751,-0.201451 0.617144,-0.82621 0.945335,-1.388374 l 0.596716,-1.022109 0.597537,0.87239 c 0.882564,1.288461 1.980648,3.841374 2.415888,5.616586 0.515847,2.103898 0.438257,7.143596 -0.13889,9.024662 -0.993674,3.238538 -2.448978,5.727373 -4.646272,7.945913 -3.514447,3.548413 -7.733782,5.314895 -12.7991,5.358528 -1.207568,0.01046 -2.193783,-0.0447 -2.191607,-0.122445 z M 76.004657,64.62328 c -4.381328,-1.596664 -8.258742,-5.567269 -10.093052,-10.335615 -1.060007,-2.755552 -1.30417,-4.230736 -1.210807,-7.315477 0.06713,-2.212556 0.175211,-3.038216 0.571754,-4.361019 0.9917,-3.308064 2.8416,-6.247621 5.39885,-8.57892 1.811466,-1.651423 3.445437,-2.693688 5.837285,-3.723436 1.028028,-0.442591 2.16832,-1.019928 2.53397,-1.282953 0.757786,-0.545124 1.583569,-1.973075 2.069471,-3.578531 0.182773,-0.603885 0.534268,-1.384261 0.78112,-1.734153 0.514285,-0.728974 1.941427,-1.472373 2.781433,-1.448844 0.80461,0.02253 10.424396,3.541369 11.006164,4.02595 0.766086,0.638135 1.264453,1.669076 1.257073,2.600445 -0.004,0.486528 -0.334317,1.773005 -0.774149,3.01369 -0.512381,1.445382 -0.779309,2.538457 -0.803181,3.28927 -0.06348,1.99458 -1.303288,3.649772 -3.0465,4.06719 -1.006225,0.240944 -1.546468,0.05671 -3.79683,-1.294799 -4.0873,-2.454721 -7.666906,-2.847904 -11.254732,-1.236219 -1.562718,0.701987 -3.202115,1.942306 -4.229547,3.199928 -5.190206,6.353099 -2.911698,15.298448 4.699996,18.452009 1.595093,0.660842 2.389726,1.370586 2.600546,2.322695 0.179698,0.811398 -0.103204,2.14144 -0.593596,2.790796 -0.751715,0.995482 -2.582097,1.54823 -3.735268,1.127993 z m 1.653146,-2.099481 c 0.798754,-0.683177 0.265161,-2.011033 -0.820344,-2.041439 -1.132371,-0.03172 -1.744156,1.125315 -1.034017,1.955596 0.389587,0.455506 1.369137,0.500853 1.854354,0.08586 z m 9.797056,-28.816178 c 0.172154,-0.182979 0.430759,-0.693548 0.57472,-1.134616 0.168428,-0.516048 0.429229,-0.872665 0.731643,-1.000353 0.626001,-0.264317 1.175583,-1.358274 1.024694,-2.039688 -0.187339,-0.846511 -0.927981,-1.493142 -1.735915,-1.51577 -0.913914,-0.0256 -1.390673,0.225558 -1.786453,0.941067 -0.316919,0.572922 -0.295147,1.028574 0.08941,1.872642 0.146306,0.320892 0.109292,0.657551 -0.147564,1.347646 -0.419998,1.128114 -0.420366,1.138773 -0.05289,1.527438 0.391291,0.413839 0.913922,0.414498 1.302346,0.0017 z"
       style="fill:#000000;stroke-width:0.0516037"
       id="path1030" />
    <path
       style="fill:#000000;stroke-width:0.172621"
       id="path1121"
       d="" />
    <g
       id="g1193"
       transform="matrix(0.43861889,0,0,0.43861889,20.361776,38.898536)"> <path
   class="st0"
   d="M 125.5,11.4 H 115 c -4.6,0 -8.3,3.6 -8.3,8.1 v 13.3 c 0,4.5 3.7,8.2 8.3,8.2 h 10.5 c 4.6,0 8.3,-3.7 8.3,-8.2 V 19.5 c 0,-4.4 -3.7,-8.1 -8.3,-8.1 z m 1.9,21.1 c 0,1.2 -1,2.2 -2.2,2.2 h -10.1 c -1.2,0 -2.2,-1 -2.2,-2.2 V 20 c 0,-1.2 1,-2.2 2.2,-2.2 h 10.1 c 1.2,0 2.2,1 2.2,2.2 z"
   id="path1161" />
 <path
   class="st0"
   d="m 80.6,32.5 c 0,1 -0.8,1.8 -1.8,1.8 H 68.6 c -0.5,0 -0.9,-0.2 -1.3,-0.5 C 67,33.5 66.8,33 66.8,32.6 l 0.1,-21 h -6.7 v 21.5 c 0,4.5 3.7,8.2 8.3,8.2 H 79 c 4.6,0 8.3,-3.7 8.3,-8.2 V 11.6 l -6.8,-0.1 v 21 z"
   id="path1163" />
 <path
   class="st0"
   d="m 163.4,11.4 -25.8,0.1 v 29.6 h 6.7 l 0.1,-22.8 h 6.8 V 41.1 L 158,41 V 19.4 19.2 18 h 5.1 c 1,0 1.8,0.8 1.8,1.8 V 41 l 6.8,-0.1 V 19.3 c 0,-4.3 -3.7,-7.9 -8.3,-7.9 z"
   id="path1165" />
 <path
   class="st0"
   d="m 252.2,11.4 h -10.5 c -4.6,0 -8.3,3.6 -8.3,8.1 v 13.3 c 0,4.5 3.7,8.2 8.3,8.2 h 10.5 c 4.6,0 8.3,-3.7 8.3,-8.2 V 19.5 c 0,-4.4 -3.7,-8.1 -8.3,-8.1 z m 1.9,21.1 c 0,1.2 -1,2.2 -2.2,2.2 h -10.1 c -1.2,0 -2.2,-1 -2.2,-2.2 V 20 c 0,-1.2 1,-2.2 2.2,-2.2 h 10.1 c 1.2,0 2.2,1 2.2,2.2 z"
   id="path1167" />
 <path
   class="st0"
   d="m 283.2,11.4 -19,0.1 v 29.6 h 6.7 L 271,18.3 h 11.9 c 1,0 1.8,0.7 1.8,1.6 V 41.1 L 291.5,41 V 19.4 c 0,-4.4 -3.7,-8 -8.3,-8 z"
   id="path1169" />
 <polygon
   class="st0"
   points="301.4,0.4 301.3,0.1 295.3,0.1 295.3,41.1 301.8,41.1 301.8,19.1 310.6,41.1 316,41.1 324.3,19.5 324.2,41.1 331.1,41.1 331.1,0.1 325.2,0.1 313.3,30.4 "
   id="polygon1171" />
 <polygon
   class="st0"
   points="359.7,41.1 359.7,34.4 341.5,34.4 341.5,0.1 334.9,0.1 334.9,41.1 "
   id="polygon1173" />
 <polygon
   class="st0"
   points="400,19.1 384.5,7.8 384.5,16.5 392.6,22.1 384.5,27.7 384.5,36.4 399.8,25.1 400,24.9 "
   id="polygon1175" />
 <polygon
   class="st0"
   points="373.7,0.1 361.6,41 368.2,41 380.3,0.1 "
   id="polygon1177" />
 <path
   class="st0"
   d="m 194,11.4 -16.7,-0.1 v 6.8 h 16.4 c 1,0 1.8,0.8 1.8,1.8 v 12.5 c 0,1 -0.8,1.8 -1.8,1.8 h -10.1 c -1,0 -1.8,-0.8 -1.8,-1.8 v -1 c 0,-1 0.8,-1.8 1.8,-1.8 h 10.9 v -6.9 h -11 c -4.6,0 -8.3,3.6 -8.3,8.1 v 2 c 0,4.5 3.7,8.2 8.3,8.2 H 194 c 4.6,0 8.3,-3.7 8.3,-8.2 V 19.6 c 0,-4.5 -3.8,-8.2 -8.3,-8.2 z"
   id="path1179" />
 <polygon
   class="st0"
   points="15.5,36.4 15.5,27.7 7.4,22.1 15.5,16.5 15.5,7.8 0,19.1 0,24.9 "
   id="polygon1181" />
 <polygon
   class="st0"
   points="44.2,25.2 34.7,25.3 32.3,31.9 46.9,31.9 50.5,41 57.7,41 41.6,0.1 36.1,0.1 19.8,41 27.1,41 38.8,10.7 "
   id="polygon1183" />
 <polygon
   class="st0"
   points="92.8,0.1 92.9,11.5 90.7,11.5 90.6,18.2 92.9,18.2 92.9,41.1 99.5,41.1 99.4,18.2 104.3,18.2 104.2,11.5 99.4,11.4 99.4,0.2 "
   id="polygon1185" />
 <polygon
   class="st0"
   points="207.6,0.1 207.6,11.5 205.4,11.5 205.4,18.2 207.6,18.2 207.6,41.1 214.2,41.1 214.2,18.2 219,18.2 219,11.5 214.1,11.4 214.1,0.2 "
   id="polygon1187" />
 <polygon
   class="st0"
   points="228.8,17.9 228.8,11.8 228.8,11.4 222.2,11.4 222.2,11.9 222.2,17.8 222.3,41.1 228.9,41.1 "
   id="polygon1189" />
 <rect
   x="221.5"
   y="0.1"
   class="st0"
   width="8.1000004"
   height="8.3000002"
   id="rect1191" />
 </g>
  </g>
  <style
     type="text/css"
     id="style1159"> .st0{fill:#ED7000;} </style>
</svg>
